<?xml version="1.0" encoding="UTF-8" standalone="no"?>
<svg
   xmlns:dc="http://purl.org/dc/elements/1.1/"
   xmlns:cc="http://creativecommons.org/ns#"
   xmlns:rdf="http://www.w3.org/1999/02/22-rdf-syntax-ns#"
   xmlns:svg="http://www.w3.org/2000/svg"
   xmlns="http://www.w3.org/2000/svg"
   xmlns:sodipodi="http://sodipodi.sourceforge.net/DTD/sodipodi-0.dtd"
   xmlns:inkscape="http://www.inkscape.org/namespaces/inkscape"
   version="1.0"
   width="663px"
   height="471px"
   viewBox="0 0 6630 4710"
   preserveAspectRatio="xMidYMid meet"
   id="svg29"
   sodipodi:docname="infonet.svg"
   inkscape:version="0.92.3 (2405546, 2018-03-11)">
  <metadata
     id="metadata35">
    <rdf:RDF>
      <cc:Work
         rdf:about="">
        <dc:format>image/svg+xml</dc:format>
        <dc:type
           rdf:resource="http://purl.org/dc/dcmitype/StillImage" />
      </cc:Work>
    </rdf:RDF>
  </metadata>
  <defs
     id="defs33" />
  <sodipodi:namedview
     pagecolor="#ffffff"
     bordercolor="#666666"
     borderopacity="1"
     objecttolerance="10"
     gridtolerance="10"
     guidetolerance="10"
     inkscape:pageopacity="0"
     inkscape:pageshadow="2"
     inkscape:window-width="1360"
     inkscape:window-height="715"
     id="namedview31"
     showgrid="false"
     inkscape:zoom="1.0021231"
     inkscape:cx="330.87977"
     inkscape:cy="365.52754"
     inkscape:window-x="0"
     inkscape:window-y="28"
     inkscape:window-maximized="1"
     inkscape:current-layer="layer101" />
  <g
     id="layer101"
     fill="#215197"
     stroke="none">
    <path
       d="M2685 2965 c-113 -30 -232 -92 -280 -145 l-18 -20 459 0 459 1 -40 35 c-50 44 -180 109 -260 129 -73 19 -251 19 -320 0z"
       id="path2" />
    <path
       d="M849 2695 c0 -16 -8 -140 -17 -275 l-17 -245 -145 272 -145 273 -92 0 c-68 0 -93 -3 -92 -12 0 -7 94 -191 207 -408 l207 -395 108 -3 c59 -1 108 -1 108 0 1 2 9 140 18 307 l16 304 150 -306 150 -307 103 0 103 0 -90 173 c-50 94 -146 278 -214 407 l-124 235 -117 5 -116 5 -1 -30z"
       id="path4" />
    <path
       d="M50 2716 c0 -7 431 -800 439 -809 4 -4 49 -6 99 -5 l92 3 -217 408 -216 407 -98 0 c-55 0 -99 -2 -99 -4z"
       id="path6" />
    <path
       d="M1182 2712 c1 -5 97 -190 212 -411 l210 -401 867 0 868 0 29 36 c17 20 42 58 57 85 l26 49 -873 0 -873 0 -40 77 c-22 42 -41 81 -43 85 -2 4 80 8 183 8 146 0 186 3 182 13 -3 6 -17 40 -32 74 l-27 63 -195 2 -195 3 -93 160 -93 160 -87 3 c-49 2 -85 -1 -83 -6z"
       id="path8" />
    <path
       d="M2287 2688 c-24 -32 -57 -91 -57 -102 0 -3 278 -7 617 -8 l617 -3 195 -337 196 -338 102 0 101 0 6 63 c3 34 11 163 17 287 6 124 12 226 13 227 1 1 68 -128 150 -287 l148 -290 84 0 c46 0 84 3 84 8 0 4 -96 187 -214 407 l-213 400 -105 3 -105 3 -13 -283 c-7 -156 -15 -286 -19 -290 -3 -4 -78 123 -166 283 l-160 289 -627 0 -627 0 -24 -32z"
       id="path10" />
    <path
       d="M4260 2714 c0 -3 93 -188 206 -410 l206 -404 779 0 c570 0 779 3 779 11 0 6 -12 38 -26 70 l-27 59 -137 0 -138 0 -176 323 c-97 178 -182 331 -189 340 -10 15 -27 17 -110 15 l-97 -3 185 -339 c102 -187 185 -341 185 -343 0 -2 -205 -2 -456 -1 l-457 3 -38 88 c-21 49 -41 97 -44 108 -6 18 2 19 173 21 l180 3 -30 68 -31 67 -191 0 -192 0 -42 85 c-23 47 -42 87 -42 90 0 3 111 5 246 5 280 0 256 -11 208 96 l-24 54 -350 0 c-192 0 -350 -3 -350 -6z"
       id="path12" />
    <path
       d="M2197 2488 c-3 -13 -9 -47 -13 -75 l-7 -53 195 0 196 0 6 32 c4 18 18 50 31 70 14 21 25 40 25 43 0 3 -96 5 -214 5 -213 0 -214 0 -219 -22z"
       id="path14" />
    <path
       d="M3062 2503 c16 -31 57 -121 62 -136 5 -16 21 -17 193 -15 l188 3 -2 35 c-1 19 -4 54 -8 78 l-6 42 -215 0 c-119 0 -214 -3 -212 -7z"
       id="path16" />
    <path
       d="M2184 2258 c4 -29 11 -68 17 -85 l11 -33 209 0 c115 0 209 3 209 6 0 3 -10 20 -22 37 -12 17 -27 51 -34 76 l-11 46 -193 3 -193 2 7 -52z"
       id="path18" />
    <path
       d="M3126 2298 c-3 -7 -10 -30 -16 -50 -6 -20 -22 -53 -35 -73 l-24 -35 214 0 214 0 10 38 c6 20 12 57 13 82 l3 45 -188 3 c-145 2 -188 0 -191 -10z"
       id="path20" />
    <path
       d="m 6371,2163 c -36.9012,-17.4538 -62.3455,-54.3982 -68.3896,-94.4341 -7.2882,-45.8767 -0.5603,-98.096 32.9853,-132.7531 40.6999,-41.4929 108.1608,-57.3131 161.3046,-31.179 38.2391,18.8548 71.464,52.6955 80.8238,95.3464 11.05,45.3355 1.2771,97.8437 -33.4587,130.742 -30.7024,32.5728 -75.6271,53.6764 -120.9528,47.8668 -18.1965,-1.9993 -35.8777,-7.6111 -52.3126,-15.589 z m 141,-52 c 16.2713,-13.5257 27.5519,-33.1799 32.0938,-53.463 5.1362,-22.9371 3.6244,-48.5204 -7.0435,-70.1627 -12.0626,-19.3784 -28.4704,-39.0463 -50.0407,-45.9194 -39.0225,-12.4341 -89.6831,-14.5014 -121.8998,15.3845 -30.8239,26.5785 -43.1806,72.2029 -28.7418,110.4602 11.9722,36.9396 44.5519,66.9445 83.5295,72.1737 33.0186,5.2794 67.5742,-5.9803 92.1025,-28.4733 z"
       id="path22"
       inkscape:connector-curvature="0"
       sodipodi:nodetypes="cccccccccacacccc" />
    <path
       d="m 6370,2035 v -75 c 35.2812,0.8277 71.3214,-2.9417 105.8523,6.1488 19.5621,4.4155 27.5506,28.2588 21.4698,45.7956 -2.7519,10.7864 -12.0055,17.3486 -19.3562,24.8096 -6.7771,10.2945 1.6934,22.0616 6.5997,31.2351 7.6847,14.2581 16.4181,27.934 24.4344,42.0109 -15.8116,-0.8553 -32.4388,2.3711 -47.5809,-3.4165 -17.3703,-8.2025 -22.9444,-28.0542 -31.4421,-43.6508 -2.1245,-4.4417 -11.9118,-8.7832 -11.9937,-0.085 -2.2585,13.624 -0.562,46.9732 -0.562,46.9732 l -46.7749,0.1675 c 0,0 -0.378,-59.9731 -0.6464,-74.9886 z m 82.8171,-32.4947 c -1.6269,-10.8422 -15.2389,-12.2059 -23.9176,-10.9526 -8.202,1.1844 -21.7745,5.1971 -18.7519,16.3231 2.4019,13.4342 19.2765,11.3362 29.0681,8.7743 6.3281,-1.6557 14.7095,-6.7604 13.6014,-14.1448 z"
       id="path24"
       inkscape:connector-curvature="0"
       sodipodi:nodetypes="sccccccccccccscacac" />
    <path
       d="M2420 1835 c22 -26 122 -82 200 -110 107 -40 282 -47 394 -16 103 28 256 107 256 132 0 5 -194 9 -431 9 -383 0 -430 -2 -419 -15z"
       id="path26" />
  </g>
</svg>
